<svg xmlns="http://www.w3.org/2000/svg" viewBox="0 0 512 512"><defs><style>.a{fill:#1d568f;}.b,.c,.e,.f,.g,.h,.i,.j{fill:none;stroke-miterlimit:10;stroke-width:2px;}.b{stroke:#f2f2f2;}.c,.e,.f,.g,.h,.i,.j{stroke:#fff;}.d{fill:#fff;opacity:0.35;}.e{stroke-dasharray:11.94 11.94;}.f{stroke-dasharray:11 11;}.g{stroke-dasharray:11.78 11.78;}.h{stroke-dasharray:11.27 11.27;}.i{stroke-dasharray:11.65 11.65;}.j{stroke-dasharray:11.81 11.81;}</style></defs><title>logo.blue</title><rect class="a" width="512" height="512"/><path class="b" d="M248.66,51,43,130.92V380.39L249,470l206-89.61V130.92ZM397,337.54l-147.62,64L102,337.54V154.4L249.16,94.78,397,154.4Z"/><line class="c" x1="43.13" y1="130.92" x2="102.02" y2="154.4"/><line class="c" x1="396.74" y1="154.4" x2="454.87" y2="130.92"/><line class="c" x1="249.29" y1="401.58" x2="248.99" y2="470"/><polygon class="d" points="249.45 356.79 359 309.25 359 173.31 249.29 129.57 140.08 173.31 142.73 309.25 249.45 356.79"/><polyline class="c" points="243.97 354.35 249.45 356.79 254.96 354.4"/><line class="e" x1="265.91" y1="349.65" x2="348.02" y2="314.02"/><polyline class="c" points="353.5 311.51 359 309.25 359 303"/><line class="f" x1="359" y1="292" x2="359" y2="185"/><polyline class="c" points="359 179 359 173.31 353.43 170.93"/><polyline class="g" points="342.49 166.72 249.29 129.57 151.12 168.89"/><polyline class="c" points="145.65 171.08 140.08 173.31 140.2 179.31"/><line class="h" x1="140.42" y1="190.57" x2="142.51" y2="297.62"/><polyline class="c" points="142.62 303.25 142.73 309.25 148.21 311.69"/><line class="i" x1="158.85" y1="316.43" x2="238.65" y2="351.98"/><line class="c" x1="249" y1="357" x2="249" y2="351"/><line class="f" x1="249" y1="340" x2="249" y2="231"/><line class="c" x1="249" y1="225" x2="249" y2="219"/><line class="c" x1="140.08" y1="173.31" x2="145.63" y2="175.58"/><polyline class="j" points="156.56 180.07 248.99 218 347.97 177.79"/><line class="c" x1="353.44" y1="175.56" x2="359" y2="173.31"/></svg>